<svg xmlns="http://www.w3.org/2000/svg" version="1.1" xlink="http://www.w3.org/1999/xlink" xmlns:svgjs="http://svgjs.com/svgjs" width="100%" height="100%" preserveAspectRatio="xMidYMid meet" viewBox="0 -7.165429565247905e-7 163.59921264648438 146.9932403564453" overflow="visible"><defs id="SvgjsDefs17026"></defs><g id="SvgjsG17027" transform="scale(0.8188148615261788)" opacity="1"><g id="SvgjsG17028" class="BZzHoAzbP" transform="translate(24.139595909258354, -32.050469095143676) scale(1.515177778259268)" light-content="false" non-strokable="false" fill="#080808"><path d="M34.617 69.23c0 5.313-4.309 9.617-9.617 9.617s-9.617-4.304-9.617-9.617c0-5.309 4.308-9.613 9.617-9.613s9.617 4.304 9.617 9.613m50 0c0 5.313-4.309 9.617-9.617 9.617s-9.617-4.304-9.617-9.617c0-5.309 4.308-9.613 9.617-9.613s9.617 4.304 9.617 9.613"></path><path d="M78.848 40.383h-8.309l-6.25-15.617a5.752 5.752 0 0 0-5.347-3.613H29.54a5.754 5.754 0 0 0-5.368 3.617l-6.246 15.613H9.618a5.776 5.776 0 0 0-5.77 5.77v19.23c0 3.171 2.598 5.769 5.77 5.769h2.074a13.57 13.57 0 0 1-.152-1.922c0-7.422 6.039-13.461 13.46-13.461s13.462 6.04 13.462 13.461c0 .656-.063 1.293-.153 1.922h23.383a13.57 13.57 0 0 1-.152-1.922c0-7.422 6.04-13.461 13.461-13.461s13.461 6.04 13.461 13.461c0 .656-.063 1.293-.152 1.922h2.074c3.172 0 5.77-2.598 5.77-5.77v-7.691c0-9.54-7.77-17.309-17.306-17.309zm-36.539 0H27.442l2.445-7.79c.942-2.323 3.035-3.745 5.422-3.745h7zm3.844 0V28.844h7.02a5.744 5.744 0 0 1 5.347 3.617l.059.133 2.445 7.79z"></path></g><g id="SvgjsG17029" class="text" transform="translate(99.9, 141.99675318726483) scale(1)" light-content="false" fill="#080808"><path d="M-99.9 -38.64L-99.9 0L-90.24 0L-90.24 -12.24L-85.8 -12.24C-84.76 -12.24 -83.96 -12.06 -83.4 -11.7C-82.84 -11.34 -82.38 -10.72 -82.02 -9.84L-77.7 0L-67.62 0L-72.18 -10.44C-72.62 -11.44 -73.01 -12.2 -73.35 -12.72C-73.69 -13.24 -74.12 -13.72 -74.64 -14.16C-72.32 -15.12 -70.51 -16.58 -69.21 -18.54C-67.91 -20.5 -67.26 -22.78 -67.26 -25.38C-67.26 -29.54 -68.37 -32.79 -70.59 -35.13C-72.81 -37.47 -76.14 -38.64 -80.58 -38.64ZM-83.1 -19.68L-90.24 -19.68L-90.24 -31.2L-82.68 -31.2C-78.96 -31.2 -77.1 -29.26 -77.1 -25.38C-77.1 -23.5 -77.62 -22.08 -78.66 -21.12C-79.7 -20.16 -81.18 -19.68 -83.1 -19.68Z M-61.83 -3.18C-58.89 -0.66 -54.88 0.6 -49.8 0.6C-45.16 0.6 -41.48 -0.02 -38.76 -1.26L-38.76 -7.56C-39.84 -7.12 -41.19 -6.76 -42.81 -6.48C-44.43 -6.2 -46.02 -6.06 -47.58 -6.06C-50.5 -6.06 -52.74 -6.44 -54.3 -7.2C-55.86 -7.96 -56.86 -9.26 -57.3 -11.1L-37.14 -11.1L-37.14 -16.2C-37.14 -20.12 -38.4 -23.24 -40.92 -25.56C-43.44 -27.88 -46.92 -29.04 -51.36 -29.04C-56.2 -29.04 -59.89 -27.73 -62.43 -25.11C-64.97 -22.49 -66.24 -18.86 -66.24 -14.22C-66.24 -9.38 -64.77 -5.7 -61.83 -3.18ZM-45.54 -16.68L-57.3 -16.68C-57.3 -18.72 -56.83 -20.2 -55.89 -21.12C-54.95 -22.04 -53.34 -22.5 -51.06 -22.5C-47.38 -22.5 -45.54 -20.98 -45.54 -17.94Z M-30.84 -21.12L-30.84 0L-21.18 0L-21.18 -21.12L-14.16 -21.12L-14.16 0L-4.5 0L-4.5 -28.44L-21.18 -28.44L-21.18 -30.42C-21.18 -31.78 -20.71 -32.77 -19.77 -33.39C-18.83 -34.01 -17.22 -34.32 -14.94 -34.32C-14.14 -34.32 -13.27 -34.25 -12.33 -34.11C-11.39 -33.97 -10.7 -33.78 -10.26 -33.54L-10.26 -40.38C-12.3 -41.18 -14.96 -41.58 -18.24 -41.58C-20.84 -41.58 -23.09 -41.1 -24.99 -40.14C-26.89 -39.18 -28.34 -37.87 -29.34 -36.21C-30.34 -34.55 -30.84 -32.7 -30.84 -30.66L-30.84 -28.44L-34.62 -28.44L-34.62 -21.12Z M1.62 -28.44L1.62 0L11.28 0L11.28 -19.38C12 -20.1 12.9 -20.7 13.98 -21.18C15.06 -21.66 16.12 -21.9 17.16 -21.9C18.88 -21.9 20.09 -21.56 20.79 -20.88C21.49 -20.2 21.84 -19.06 21.84 -17.46L21.84 0L31.5 0L31.5 -18.24C31.5 -21.92 30.65 -24.64 28.95 -26.4C27.25 -28.16 24.58 -29.04 20.94 -29.04C19.06 -29.04 17.23 -28.75 15.45 -28.17C13.67 -27.59 12.16 -26.86 10.92 -25.98L10.62 -28.44Z M40.53 -3.18C43.47 -0.66 47.48 0.6 52.56 0.6C57.2 0.6 60.88 -0.02 63.6 -1.26L63.6 -7.56C62.52 -7.12 61.17 -6.76 59.55 -6.48C57.93 -6.2 56.34 -6.06 54.78 -6.06C51.86 -6.06 49.62 -6.44 48.06 -7.2C46.5 -7.96 45.5 -9.26 45.06 -11.1L65.22 -11.1L65.22 -16.2C65.22 -20.12 63.96 -23.24 61.44 -25.56C58.92 -27.88 55.44 -29.04 51 -29.04C46.16 -29.04 42.47 -27.73 39.93 -25.11C37.39 -22.49 36.12 -18.86 36.12 -14.22C36.12 -9.38 37.59 -5.7 40.53 -3.18ZM56.82 -16.68L45.06 -16.68C45.06 -18.72 45.53 -20.2 46.47 -21.12C47.41 -22.04 49.02 -22.5 51.3 -22.5C54.98 -22.5 56.82 -20.98 56.82 -17.94Z M72.24 -2.61C74.44 -0.47 77.72 0.6 82.08 0.6C83.96 0.6 85.62 0.35 87.06 -0.15C88.5 -0.65 89.82 -1.4 91.02 -2.4L91.56 0L99.9 0L99.9 -40.44L90.24 -40.44L90.24 -27.12C88.12 -28.4 85.68 -29.04 82.92 -29.04C80.16 -29.04 77.73 -28.43 75.63 -27.21C73.53 -25.99 71.89 -24.19 70.71 -21.81C69.53 -19.43 68.94 -16.56 68.94 -13.2C68.94 -8.28 70.04 -4.75 72.24 -2.61ZM90.24 -8.58C88.76 -7.14 86.96 -6.42 84.84 -6.42C82.72 -6.42 81.18 -6.89 80.22 -7.83C79.26 -8.77 78.78 -10.54 78.78 -13.14C78.78 -15.94 79.31 -18.11 80.37 -19.65C81.43 -21.19 82.98 -21.96 85.02 -21.96C87.14 -21.96 88.88 -21.34 90.24 -20.1Z"></path></g><g id="SvgjsG17030" class="text" transform="translate(99.5, 179.11950551803093) scale(1)" light-content="false" fill="#303030"><path d="M-49.55 -26.08L-49.55 0L-43.03 0L-43.03 -8.26L-40.03 -8.26C-39.33 -8.26 -38.79 -8.14 -38.41 -7.9C-38.03 -7.65 -37.72 -7.24 -37.48 -6.64L-34.56 0L-27.76 0L-30.84 -7.05C-31.13 -7.72 -31.4 -8.23 -31.63 -8.58C-31.86 -8.94 -32.15 -9.26 -32.5 -9.56C-30.93 -10.2 -29.71 -11.19 -28.83 -12.51C-27.95 -13.84 -27.52 -15.37 -27.52 -17.13C-27.52 -19.94 -28.27 -22.13 -29.76 -23.71C-31.26 -25.29 -33.51 -26.08 -36.51 -26.08ZM-38.21 -13.28L-43.03 -13.28L-43.03 -21.06L-37.92 -21.06C-35.41 -21.06 -34.16 -19.75 -34.16 -17.13C-34.16 -15.86 -34.51 -14.9 -35.21 -14.25C-35.91 -13.61 -36.91 -13.28 -38.21 -13.28Z M-23.3 -27.13L-23.3 -22.23L-16.22 -22.23L-16.22 -27.13ZM-22.78 -14.38L-22.78 0L-16.26 0L-16.26 -19.19L-25.05 -19.19L-25.61 -14.38Z M-10.67 -1.76C-9.19 -0.32 -6.97 0.4 -4.03 0.4C-2.76 0.4 -1.64 0.24 -0.67 -0.1C0.3 -0.44 1.19 -0.94 2 -1.62L2.37 0L8 0L8 -27.29L1.48 -27.29L1.48 -18.3C0.05 -19.17 -1.6 -19.6 -3.46 -19.6C-5.33 -19.6 -6.97 -19.19 -8.38 -18.36C-9.8 -17.54 -10.91 -16.33 -11.7 -14.72C-12.5 -13.11 -12.9 -11.18 -12.9 -8.91C-12.9 -5.59 -12.16 -3.21 -10.67 -1.76ZM1.48 -5.79C0.48 -4.82 -0.74 -4.33 -2.17 -4.33C-3.6 -4.33 -4.64 -4.65 -5.28 -5.28C-5.93 -5.92 -6.26 -7.11 -6.26 -8.87C-6.26 -10.76 -5.9 -12.22 -5.18 -13.26C-4.47 -14.3 -3.42 -14.82 -2.04 -14.82C-0.61 -14.82 0.56 -14.4 1.48 -13.57Z M14.29 -2.15C16.28 -0.45 18.99 0.4 22.41 0.4C25.55 0.4 28.03 -0.01 29.86 -0.85L29.86 -5.1C29.14 -4.81 28.22 -4.56 27.13 -4.37C26.04 -4.18 24.96 -4.09 23.91 -4.09C21.94 -4.09 20.43 -4.35 19.38 -4.86C18.32 -5.37 17.65 -6.25 17.35 -7.49L30.96 -7.49L30.96 -10.93C30.96 -13.58 30.11 -15.68 28.41 -17.25C26.71 -18.82 24.36 -19.6 21.36 -19.6C18.09 -19.6 15.6 -18.72 13.89 -16.95C12.18 -15.18 11.32 -12.73 11.32 -9.6C11.32 -6.33 12.31 -3.85 14.29 -2.15ZM25.29 -11.26L17.35 -11.26C17.35 -12.63 17.67 -13.63 18.3 -14.25C18.94 -14.87 20.02 -15.19 21.56 -15.19C24.05 -15.19 25.29 -14.16 25.29 -12.11Z M37.07 0.08C38.45 0.3 39.89 0.4 41.41 0.4C44.32 0.4 46.54 -0.1 48.07 -1.11C49.59 -2.13 50.35 -3.6 50.35 -5.55C50.35 -6.65 50.18 -7.57 49.83 -8.3C49.48 -9.03 48.88 -9.66 48.05 -10.18C47.21 -10.71 46.04 -11.2 44.52 -11.66C43.96 -11.85 43.4 -12.01 42.86 -12.15C41.78 -12.47 41.05 -12.72 40.68 -12.9C40.3 -13.07 40.11 -13.35 40.11 -13.73C40.11 -14.16 40.41 -14.44 41 -14.58C41.59 -14.71 42.49 -14.78 43.67 -14.78C44.51 -14.78 45.41 -14.69 46.37 -14.52C47.32 -14.34 48.17 -14.09 48.9 -13.77L48.9 -18.67C48.09 -18.94 47.09 -19.16 45.9 -19.34C44.71 -19.51 43.54 -19.6 42.38 -19.6C36.44 -19.6 33.47 -17.64 33.47 -13.73C33.47 -12.19 33.89 -10.99 34.72 -10.14C35.56 -9.29 36.92 -8.54 38.81 -7.9L40.56 -7.33C41.72 -6.98 42.53 -6.68 42.98 -6.44C43.44 -6.2 43.67 -5.89 43.67 -5.51C43.67 -5.05 43.44 -4.76 42.96 -4.64C42.49 -4.52 41.62 -4.45 40.35 -4.45C39.33 -4.45 38.2 -4.57 36.97 -4.8C35.74 -5.03 34.67 -5.33 33.75 -5.71L33.75 -0.73C34.59 -0.4 35.7 -0.13 37.07 0.08Z"></path></g></g></svg>